<svg viewBox="0 0 64 64" xmlns="http://www.w3.org/2000/svg"><title/><g id="View"><path d="M61.5059,48.1372,53.6472,43.53a36.5883,36.5883,0,0,0,8.2747-11.1422,1.005,1.005,0,0,0,0-.7764C61.8389,31.416,53.416,12,32,12a31.08,31.08,0,0,0-20.0536,7.0851l-8.44-4.9479a1,1,0,0,0-1.0118,1.7256L10.3528,20.47A36.5883,36.5883,0,0,0,2.0781,31.6118a1.005,1.005,0,0,0,0,.7764C2.1611,32.584,10.584,52,32,52a31.08,31.08,0,0,0,20.0536-7.0851l8.4405,4.9479a1,1,0,0,0,1.0118-1.7256ZM32,14c18.4189,0,26.6172,15.3408,27.8984,18a35.1472,35.1472,0,0,1-8.0557,10.4725l-9.0336-5.2954a11.9843,11.9843,0,0,0-20.608-12.0806l-8.4029-4.9258A29.1222,29.1222,0,0,1,32,14ZM22.92,27.8364,40.0654,37.8873A9.9849,9.9849,0,0,1,22.92,27.8364Zm1.015-1.7237A9.9849,9.9849,0,0,1,41.08,36.1636ZM32,50C13.5811,50,5.3828,34.6592,4.1016,32a35.1472,35.1472,0,0,1,8.0557-10.4725l9.0336,5.2954a11.9843,11.9843,0,0,0,20.608,12.0806l8.4029,4.9258A29.1222,29.1222,0,0,1,32,50Z"/></g></svg>